<?xml version="1.0" encoding="utf-8"?>
<!-- Generator: Adobe Illustrator 16.0.4, SVG Export Plug-In . SVG Version: 6.00 Build 0)  -->
<!DOCTYPE svg PUBLIC "-//W3C//DTD SVG 1.1//EN" "http://www.w3.org/Graphics/SVG/1.1/DTD/svg11.dtd">
<svg version="1.1" id="Layer_1" xmlns="http://www.w3.org/2000/svg" xmlns:xlink="http://www.w3.org/1999/xlink" x="0px" y="0px"
	 width="500px" height="500px" viewBox="0 0 500 500" enable-background="new 0 0 500 500" xml:space="preserve">
<g>
	<g>
		<path fill="#FFFFFF" d="M245.097,441.096l-3.998-1.88c-44.498-20.573-80.397-50.475-103.85-86.459
			C81.016,266.47,79.188,177.335,77.21,82.986c-0.151-7.115-0.301-14.306-0.472-21.496l-0.237-9.76H413.5l-0.235,9.76
			c-0.173,7.232-0.302,14.435-0.473,21.646c-1.979,94.305-3.848,183.375-60.062,269.62c-23.367,35.92-59.224,65.821-103.613,86.459
			L245.097,441.096z"/>
	</g>
	<path fill="#FFD74F" d="M244.323,167.898L112.271,271.875c-21.217-65.734-20.615-134.47-22.356-204.441h308.087
		c-1.698,70.153-0.902,138.578-22.271,204.485L244.323,167.898z"/>
	<path fill="#FFD74F" d="M351.268,327.992c-3.268,5.761-6.749,11.5-10.488,17.239c-23.497,36.072-58.364,62.748-96.691,80.581
		c-38.544-17.833-73.432-44.509-96.929-80.581c-3.654-5.588-10.274-16.884-10.274-16.884l107.438-85.686L351.268,327.992z"/>
	<path fill="#CD1543" d="M153.91,120.198c-15.563-3.322-29.471-14.909-26.139-29.623c0.042-0.14-0.602-3.815-1.913-4.31
		c-0.129-0.043-0.366-0.452-0.581-0.526c-0.581-0.162-1.076-0.398-1.592-0.786c-0.15-0.118-0.903-0.354-0.903-0.612
		c-0.258,0.591-0.214,1.16-0.601,1.688c-0.15,0.214-0.387,0.516-0.602,0.645c-0.302,0.128-0.323,0.386-0.537,0.58
		c-1.184,1.183-0.539,2.967-0.366,4.31c0.044,0.343,0.193,0.73-0.193,0.817c-0.516,0.097-0.108-0.117-0.689-0.474
		c-0.17-0.095-0.343-0.321-0.493-0.385c-0.237-0.108-1.205-0.237-1.354-0.474c-0.214-0.258-0.108-0.355-0.364-0.537
		c-0.539-0.504-0.581-1.472-0.968-2.472c-0.064-0.161-0.237-1.042-0.237-1.236c0-0.989-2.537-2.601-1.548-1.773
		c0.344,0.291-0.064-0.408-1.417-0.73c-0.861-0.237-1.85-0.193-2.838-0.076c-0.194,0.043-0.387,0.215-0.516,0.312
		c-0.968,0.785-1.914,1.688-3.203,1.752c0.214-0.151,0.322,0.117,0.408,0.236c0.624,0.773,0.173,1.752,0.538,2.633
		c0.365,0.85,1.01,1.504,1.741,2.108c0.709,0.548,1.913-0.161,2.472,0.772c0,0,1.182,0.292,0.021,1.431
		c-2.106,2.118-4.406,0.398-6.169,4.343c2.623-1.141,2.946,2.869,4.063,2.998c5.03,0.709,8.856,1.592,11.607,6.686
		c1.677,3.138-3.03,3.267,1.247,3.977c2.15,0.387,3.59,1.472,4.666,3.019c1.161,1.592,1.332,3.741,2.558,5.257
		c0.882,1.074,1.226,1.289,2.322,2.182c0.452,0.408,1.998,0.816,2.602,0.945c0.601,0.172,0.901,0.452,1.461,0.666
		c0.581,0.216,1.182,0.431,1.698,0.838c0.431,0.345,1.505,0.709,1.763,1.184c0.431,0.869,0.064,1.719,0.537,2.599
		c0.129,0.237,0.797,0.023,1.076,0.12c0.237,0.097,0.859,0.118,1.011,0.097c1.03-0.226,1.268-0.313,2.042-0.398
		c1.161-0.15,1.009,0.237,2.537,0.173c0.323,0,0.429,0.226,0.88,0.226c0.279,0,0.774,0.323,0.86,0.053
		c0.474-1.451,1.205-2.827,2.064-4.224c0.859-1.398,0.753-1.516,1.806-2.988C152.555,121.271,154.06,120.198,153.91,120.198"/>
	<path fill="#CD1543" d="M115.001,122.002c4.557,2.495,3.933,8.557,8.083,10.522c7.309,3.484,16.08,5.88,23.861,2.064
		c-1.742,5.407,0.172,9.931-0.581,10.543c-2.451,1.968-9.91-0.355-14.661-2.247c-3.288-1.311-5.933,3.548-9.543,3.118
		c0.17-0.398,0.581-1.655,0.343-2.429c-0.581-1.763-1.009-2.279-3.956-1.924c-1.892,0.205-1.117,1.774-3.933,3.149
		c-1.138-0.668-3.548-1.419-3.891,0.709c-0.15,0.998-2.15-3.46-1.763-4.193c1.871-3.32,2.258-4.106,2.106-4.815
		c-0.214-1.118-4.234-2.579-4.75-1.654c-1.247,2.182-4.943-7.051,5.934-6.47c-2.903-1.892-2.581-2.205-1.915-4.451
		c0.129-0.322-0.966-1.472-1.719-0.666c-0.258-0.86,0.301-1.807,1.009-1.892C111.412,121.122,113.174,121.035,115.001,122.002"/>
	<path fill="#CD1543" d="M136.648,99.582c6.622,1.504,16.488-7.018,22.227,3.053C154.64,101.086,142.129,107.804,136.648,99.582"/>
	<path fill="#CD1543" d="M191.894,114.21c-0.108,8.599-9.05,17.886-1.785,26.086c-2.986-0.043-6.447-1.074-8.534-2.73
		c-1.118-0.945-0.88,4.106-0.73,5.126c0.129,0.903-5.502-5.288-7.587-3.793c-5.998,4.288-8.578,6.072-17.435,6.394
		c-2.449,0.097-3.76,2.064-4.47,4.226c-2-4.106-0.495-13.446,0.666-17.617c3.118-11.373,14.532-14.757,23.732-20.197
		c6.578-3.901,9.394-11.564,9.05-19.025C189.464,98.517,192.002,106.88,191.894,114.21"/>
	<path fill="#CD1543" d="M149.954,211.148c1.097,0.249,0.258,1.172-0.194,1.43c-0.88,0.613-1.525,1.353-2.085,2.268
		c-0.452,0.666-0.751,1.408-0.581,2.258c0.087,0.622,0.322,1.17,0.539,1.708c0.15,0.366,0.494,0.539,0.751,0.839
		c0.085,0.087,0.495,0.603,0.495,0.603c-0.216-0.817,0.989-1.7,1.268-1.527c5.675,3.29,5.998-3.396,9.417-5.631
		c1.44-0.988,4.686,0.129,3.848,3.083c3.396-1.805,4.428-6.373,7.05-9.242c5.825-6.32,14.037-10.534,21.796-13.983
		c-2.815-2.988-6.965-5.472-9.027-8.912c-1.076-1.687-2.299-4.986,0-4.373c9.566,2.493,14.919-3.343,15.972-10.866
		c14.166,1.837,17.822-11.545,19.734-21.658c0.924-4.903,3.632-5.332,0.666-13.672c-1.205-3.516,6.276-4.654,4.988-10.684
		c-0.323-1.666-2.408-3.343-3.612-3.537c1.14,3.246-4.3,4.074-4.88,5.407c-0.903,2.085-2.279,3.74-2.45,5.922
		c-4.601-6.374-0.859-14.048,3.461-20.034c6.297-8.686,19.389-4.117,24.914,1.482c0.108-2.804-2.085-6.362-3.892-8.115
		c5.159-0.645,10.792,2.472,17.799-1.256c4.063-2.141,8.147-4,10.062-8.792c-8.643,1.191-20.335-5.472-28.118-6.827
		c-14.509-2.503-24.225,7.396-29.428,19.174c-5.159,11.781-1.85,20.584,3.783,29.386c1.396,2.205-5.009,0.765-7.524,2.064
		c-2.45,1.258-3.438,4.288-2.88,6.965c3.074-3.311,11.308-1.246,11.995,4.417c1.011,7.675-6.707,18.831-14.145,15.467
		c-8.018-3.569-12.553-12.016-15.198-21.497c-6.815,5.879-19.455,1.032-25.323,6.794c-5.588,5.438,8.686,9.178,14.252,11.714
		c2.043,0.99,4.085,3.064,3.74,5.643c-8.684-5.104-19.195,0.688-18.679,9.997c0.408,6.954,8.921,11.285,15.993,11.887
		c2.944,0.205,4.75,3.504,1.14,5.762c-6.299,3.921-13.329,8.308-20.1,1.203c-1.118-1.182-5.18-0.452-5.998,1.73
		c-0.408,1.043-0.537,2.645-0.343,3.719c0.366-0.645,0.795-1.569,1.375-1.482c0.666,0.085,1.483,0.795,1.398,1.268
		c-0.603,3.514-5.181,1.235-6.601,3.965c-0.021,0.043-0.129,0.108-0.129,0.108c-0.085,0.279-0.214,0.472-0.344,0.677
		c-0.903,1.848-2.193,3.009,0.085,4.428c-0.042-0.345,1.161,1.484,1.097,1.795c0.152-1.688,1.892-1.624,1.892-1.624l1.011,0.097
		L149.954,211.148z"/>
	<path fill="#CD1543" d="M120.483,178.389c-0.924-0.291-1.871,0.064-2.751,0.44c-0.537,0.268-1.247,0-1.569,0.581
		c-0.237,0.344-0.366,0.73-0.237,1.129c0.064,0.224,0.15,0.611,0.323,0.74c-1.182-0.106-2.322-0.901-3.247-1.74
		c-0.3-0.258-0.472-0.571-0.751-0.839c-0.173-0.205-0.129-0.548-0.281-0.818c-0.129-0.29-0.065-0.611-0.065-0.892
		c-0.021-0.806-0.064-1.666,0.281-2.417c0.193-0.345,0.364-0.721,0.601-1c0.214-0.27,0.408-0.452,0.625-0.666
		c0.622-0.592,1.311-1.043,2.106-1.281c1.182-0.354,2.449-0.258,3.567,0.237c0.903,0.408,1.958,0.366,2.947,0.622
		c0.493,0.141,1.396-1.332,0.751-1.502c-2.988-0.709-2.965-1.516-4.062-4.527c-0.537-0.59-1.226,0.099-1.484,0.41
		c-0.021-5.762,6.792-6.138,9.675-3.848c4.212,3.396,1.009,10.027,6.232,11.877c2.687,0.977,5.569,1.708,8.384,0.526
		c5.009-2.139,0.021-7.18,1.59-11.447c3.29-8.631,10.555-9.083,19.218-0.753c-7.76,2.548-11.371,12.759-7.159,19.52
		c-6.792-2.666-15.391,1.838-20.184,4.889c4.449-4.449-1.806-8.06-3.398-7.253l-1.869,1.289c-0.924,1.172-0.988,2.375-2.108,3.472
		c-0.643,0.625-1.009,0.73-1.825,0.947c-1.12,0.279-1.829,0.214-2.859-0.472c-0.152-0.12-0.753,0.15-0.882,0.3
		c-0.537,0.666-0.021,1.021-0.021,1.279c-0.152-0.118-0.86-0.677-0.947-0.784c-0.623-0.474-1.376-0.894-1.784-1.548
		c-0.408-0.656-0.689-2.332-0.216-3.258c0.452-0.901,1.377-1.159,1.958-1.794c0.581-0.569-0.108-1.45-0.797-1.558"/>
	<path fill="#CD1543" d="M286.478,102.365c0.604,0.387-0.064,1.495-0.751,1.7c-0.861,0.247-2-0.129-2.73,0.159
		c-3.268,1.193-3.268,9.191-2.815,8.276c0.493-1.03,2.88-0.364,4.449-0.053c2.493,0.495,4.405-4.599,6.062-4.449
		c3.912,0.354,7.546,5.212,9.051,8.405c0.258,0.569-1.656,0.601-1.786,2.569c5.332-0.505,9.825,2.956,13.673,6.115
		c1.87-3.255,3.783-5.276,5.891-7.394c-7.997-7.804-23.927-10.2-21.455-24.388c0.346-1.827-1.719-3.44-2.643-4.32
		c-1.032-1-3.396-1.064-4.836-1.398c1.525,3.161-1.247,3.461-0.839,8.438c0,0.173-0.451,0.064-0.624,0
		c-0.968-0.419-1.763-1.009-2.666-1.59c-0.839-0.495-1.59-0.376-2.537-0.226c-0.516,0.065-1.032,0.323-1.504,0.655
		c-0.752,0.539-1.139,1.226-1.654,2.021c-0.108,0.108-0.215,0.302-0.344,0.431c-0.173,0.15-0.495,0.698-0.517,0.968
		c0.388-0.043,1.698,0.076,1.913,0.408c0.366,0.592,0.387,1.247,0.839,1.795c0.516,0.721,1.009,0.73,1.783,1.053
		c1.27,0.548,2.364,0.774,3.719,0.645"/>
	<path fill="#CD1543" d="M307.158,96.648c5.009-0.387,9.952-4.225,15.498,2.268c-1.03-0.484-2.213-0.666-2.857-0.161
		c-6.106,4.923-13.544,3.278-17.456-2.816C303.956,95.681,305.868,96.733,307.158,96.648"/>
	<path fill="#CD1543" d="M328.762,114.77c8.234-4.138,16.51-7.481,19.906-17.67c0.646-2,2.191,2.966,2.279,3.235
		c4.341,12.424-4.3,24.775-2.517,37.469c-2.924-1.774-6.17-2.977-9.329-3.106c-11.265-0.302-13.951,6.545-14.596,5.91
		c-3.097-3.127-11.975-5.804-11.309-5.224C307.91,130.548,323.13,117.661,328.762,114.77"/>
	<path fill="#CD1543" d="M306.341,197.487c1.117,1.73-0.366-0.978,0.903,1.988c5.953-2.493,12.103-5.353,18.681-2.687
		c-2.924-13.359,6.836-16.605,7.608-18.617c1.246-3.203-5.265-9.576-10.188-7.802c-6.299,2.256-3.676,10.156-4.859,15.691
		c-0.645,3.053-4.428,5.299-7.566,4.225c-5.224-1.785-7.286-6.622-8.576-12.039c-0.838-3.61-7.889-4.062-9.394-1.106
		c-4.322,8.415,2.558-0.958,2.127,5.405c-0.085,1.085-5.051,0.258-6.17,4.03c-0.751,2.59,1.677,4.29,4.751,5.214
		c0.56,0.15-0.581-1.258,0.193-1.613c0.56-0.214,2.817,1.011,2.516,1.14c-2.944,1.827-3.697,5.996,1.59,7.845
		c0.044,0-0.387-1.516,0-1.815c4.149-3.085,8.449,0.258,8.449,0.139"/>
	<path fill="#CD1543" d="M216.96,282.022c4.942,2.268,6.555-0.161,13.004-1.226c0.945-0.15,4.579,2.246,5.631,3.451
		C229.083,285.269,221.194,290.921,216.96,282.022"/>
	<path fill="#CD1543" d="M214.315,287.213c-0.302-0.333-0.73-0.472-1.14-0.622c-0.385-0.193-0.837-0.322-1.289-0.409
		c-0.152-0.021-0.947-0.194-1.076-0.259c-0.043,0.302,0.366,1.056,0.129,1.27c-0.516,0.473-0.688,0.344-1.117,0.968
		c-0.15,0.258-0.344,0.505-0.387,0.783c-0.085,0.56-0.343,1.205-0.452,1.883c-0.021,0.288,0.129,1.085,0.193,1.396
		c0.064,0.129,0.408,0.838,0.516,1.032c0,0,0.795,0.859,0.73,0.806c0.947,0.956,0.173,0.396,1.291,1.515
		c0.56,0.538-0.258,1.495-0.795,1.345c-3.848-1.129-4.387-5.568-7.848-6.9c-2.537-1-6.191,0.988-6.555,4.848
		c0.838-0.249,1.74,0.064,1.892,0.772c0.968,3.914,6.664,1.568,6.771,4.289c0.106,1.805-4.235-0.301-5.977,0.86
		c-2.299,1.516-2.601,5.9-0.581,8.448c2.085-1.979,4.643,0.924,6.664-0.539c1.419-0.988,1.915-2.407,3.375-3.041
		c4.343-1.956,5.654,2.074,4.686,6.127c2.364-1.086,7.933-2.225,9.2-2.581c2.301-0.634,2.408-5.954,5.223-7.919
		c-3.977-0.023-8.942-1.73-10.06-5.666c-0.108-0.387,0.15-0.902,0.214-1.375c0.087-1.473-0.064-2.913-0.622-4.288
		c-0.043-0.129-0.193-0.322-0.302-0.484c-0.171-0.226-0.3-0.451-0.429-0.698c-0.41-0.538-1.011-0.806-1.571-1.151
		c-0.235-0.171-0.581-0.214-0.772-0.451"/>
	<path fill="#CD1543" d="M184.908,314.805c1.698,3.407-6.923-2.074-10.126,2.977c-1.053,1.624-0.493,5.288-0.493,7.331
		c1.956-1.785,3.954,1.634,7.652-1.656c0.408,0.366,0.859,0.604,0.279,1.182c-1.332,1.366-2.127,3.108-1.375,4.763
		c0.431,1.064,3.504,3.235,3.525,3.053c0.322-2.226,4.149,0,4.709-4.364c0.258-1.795,0.772-4.783,3.396-3.707
		c2.385,0.988,2.859,3.664,2.3,6.341c3.804-1.237,10.49-5.117,14.423-2.246c5.375,3.859,14.145,5.47,20.423,7.416
		c-4.149-2.892-5.481-10.437-4.772-15.306c-9.868,1.913-20.206,1.579-29.365-2.645c-2.493-1.149-2.129-4.041-2.903-6.417
		c-0.837-2.675-4.235-5.138-7.309-4.921c-1.59,0.138-5.546,3.578-4.815,3.728c-0.258-0.032-0.235,0.507-0.387,0.774
		c0.774-0.473,1.698,0,2.043,0.795c0.214,0.548,0.472,1.173,0.924,1.624C183.597,314.083,184.586,314.212,184.908,314.805"/>
	<path fill="#CD1543" d="M208.49,368.643c1.933-2.354,3.525-1.085,4.364-1.064c1.977,0.064,1.848,2.892,1.654,4.696
		c7.825-3.815,15.283-9.222,24.485-7.232c-5.331-5.59-3.462-17.629,4.106-19.101c0.021,0-4.859-0.795-5.375-1.139
		c-6.599-4.17-14.64-8.158-19.089,0.602c-2.191,4.343,1.85,7.856,4.88,11.458c0.537,0.612-0.323,1.021-1.053,1.214
		c-7.179,1.849-20.443,2.913-21.045-7.845c-0.085-1.097-2.838-2-4.643-1.947c-5.311,0.161-5.223,6.965-4.622,6.493
		c1.161-0.903,4.707-0.569,4.299,2.159c-0.408,2.538-5.353-1.354-7.352,1.204c-1.677,2.139-1.613,5.643-0.452,7.997
		c-0.214-0.861,0.795-1.504,1.311-1.568c5.525-0.947,5.848,0.988,4.235,6.352c-0.173,0.386,1.613,3.772,2.774,4.074
		c-0.108-0.023-0.064-0.786,0.085-1.021c0.172-0.258,0.431-0.451,0.709-0.538c0.581-0.193,1.226-0.171,1.827-0.332
		c0.279-0.097,0.495-0.27,0.774-0.42c0.429-0.302,0.709-0.668,1.032-1.075c1.289-1.611,2.408-3.676,4.578-3.892
		c1.009-0.085,1.634,0.366,2.493,0.903"/>
	<path fill="#CD1543" d="M265.69,393.621c5.053-4.998,8.707-11.705,14.103-16.573c-5.912-3.495-13.264-7.138-14.038-14.983
		c-0.064-0.537,0.817-1.097,1.012-1.032c8.276,4.654,19.347,5.009,25.301-3.407c4.794-6.804,6.88-17.819,16.209-18.465
		c-3.097-5.965,0.407-12.889,5.522-16.026c-1.761-0.646-3.954-2.074-5.91-1.72c-2.343,0.398-3.331,3.622-6.041,4.095
		c4.214-14.241-3.933-34.179-19.669-33.814c-2.924,0.076-6.772,2.42-7.717,5.634c-0.903,3.03-1.376,6.868,0.815,9.458
		c5.139,6.17,8.836,12.875,7.224,21.002c3.654-3.15,7.051-7.825,6.921-12.779c0-1.226,2.217-0.345,2.581-0.882
		c4.299-6.276-2.73-10.168-6.47-14.124c-1.012-1.085,1.59-2.73,1.956-2.61c13.479,4.021,14.746,20.614,8.963,31.384
		c-1.547-1.913-7.244-1.256-9.156-1.934c6.275,3.17,4.663,3.622,4.384,4.687c-0.493,1.901-6.126,1.064-7.223,2.461
		c-1.892,2.396-3.311,3.493-3.461,11.499c2.602-2.815,6.041-7.082,9.781-5.19c7.911,4.073-0.408,17.777-7.866,20.045
		c-6.429,1.956-12.341-0.085-16.274-5.663c-5.762-8.03-1.592-17.79-5.653-25.946c-3.353,0.827-2.622,5.256-4.385,4.461
		c-6.214-2.871-9.76-9.523-14.253-15.124c-1.892,0.688-2.709,2.408-4.514,2.332c-2.645-0.139-7.695-0.924-8.771,0.387
		c-1.226,1.569-2.129,12.877,8.835,16.972c7.502,2.807,13.414,5.278,18.121,11.114c-3.182,0.235-4.258-1.269-6.836-1.375
		c-2.536-0.088-4.17,0.903-6.062,1.869c-1.827,0.958-3.977,4.557-3.612,7.416c1.721,13.704,17.801,13.898,25.215,22.572
		c1.27,1.482-1.934,7.415-4.986,9.834c-2.58,2.064-8.727-3.105-7.738-7.492c0.795-3.481-7.631-5.813-10.597-1.816
		c1.16-0.149,1.461,0.625,1.353,1.183c-0.516,3.214,3.483,3.343,3.375,4.997c-0.214,2.247-2.149-0.966-3.718-1.256
		c-3.396-0.688-6.792,0.525-8.792,3.244c-0.581,0.807-1.935,2.129-1.354,3.527c2.601-1.27,4,2.805,6.428,1.547
		c1.461-0.763,2.687-2.062,4.449-1.611c0.709,0.193,1.462,1.139,0.795,1.558c-4.751,3.032-8.555,7.32-5.115,12.188
		c0.108-1.138,0.988-1.944,1.742-2.129c1.354-0.396,3.203,0.539,4.557,0.088c2.191-0.732,1.053-2.914,1.892-4.493
		c1.332-2.493,5.804-6.568,8.34-3.58c0.473,0.539,0.086,2.536-1.269,2.56c1.397-0.023,2.665,1.32,3.827,1.097
		c0.322-0.076,0.709-0.076,0.988-0.249c0.279-0.117,0.56-0.182,0.773-0.396c0.559-0.548,1.203-1.151,1.291-2.053
		c1.031,0.106,2.299,0.203,2.965-0.688c0.625-0.839,1.463-1.505,2.173-2.171"/>
	<path fill="#CD1543" d="M242.733,294.533c8.833-2.461,18.638-7.041,20.744-16.843c2.688,1.602,3.504,5.276,3.548,7.502
		c0.193,12.274-5.182,22.904-2.581,35.771c0.303,1.44,2.945,6.019,1.742,5.493c-1.463-0.646-4.557-3.581-6.277-2.226
		c-2.148,1.677-1.998,4.311-3.052,3.697c-3.87-2.364-7.933-5.856-9.845-10.329c-0.71-1.709-0.41-5.363-0.883-4.836
		c-2.944,3.214-9.006,3.912-13.435,4.6c1.009-0.936,1.892-4.579,1.763-5.362c-3.525-1.753-8.578,4.276-8.47,3.503
		c0.15-1.957,0.387-2.547,0.56-3.074C229.169,304.733,234.07,296.93,242.733,294.533"/>
	<path fill="#CD1543" d="M177.146,85.319c2.301-0.054,4.021-1.472,5.439-3.021c-0.085,1.29,1.784,3.106,1.097,4.482
		c-0.882,1.729-3.117,2.773-3.504,4.354c-0.945,3.299,1.719,6.502-0.214,9.758c-5.654,9.566-18.036,6.396-26.485,8.524
		c0.604-1.043-0.15-2.58-0.774-2.988c3.762,0.473,8.75-0.366,9.739-3.203c1.226-3.483,1.848-6.041,0.214-8.921
		c-2.73-4.772-8.318-2.548-12.575-0.892c-0.645-2.956,2.149-4.741,3.719-5.161c4.472-1.17,8.534-3.106,12.684-4.664
		C170.14,82.234,173.45,85.405,177.146,85.319 M170.914,90.103c0.343-0.173,0.56-0.431,0.495-0.473
		c-3.182-4.504-7.008-4.053-8.686-0.055C161.626,92.284,168.075,91.414,170.914,90.103"/>
	<path fill="#CD1543" d="M340.392,103.397c-1.204,1.043-3.225,0.99-4.601,1.935c-0.839,0.581-1.569,1.182-2.473,1.742
		c-0.387,0.235-1.612,0.774-2.063,0.892c-1.225,0.311-0.968,0.172-2.086,0.311c-0.687,0.097-1.009,0.118-1.697,0.118
		c-0.666,0-2.752,0.076-3.396,0.076c-1.613-0.053-1.892,0.064-3.503-0.193c-0.946-0.139-1.829-0.408-2.688-0.687
		c-0.602-0.193-1.203-0.301-1.804-0.333c0.041-0.634,0.129-1.323,0.666-1.751c0.622-0.592,0.773-0.043,1.739-0.152
		c0.064,0,1.398,0.108,1.442,0.108c0.214,0,0.516,0,0.73-0.044c0.429-0.064,0.795-0.15,1.161-0.343
		c0.473-0.214,1.03-0.343,1.461-0.709c0.129-0.141,0.302-0.258,0.495-0.396c0.3-0.313,0.73-0.452,1.03-0.839
		c0.903-1.097,1.592-2.193,1.698-3.645c0.087-1.053,0.172-2.15-0.021-3.245c-0.043-0.184-0.064-0.366-0.085-0.516
		c-0.044-0.838-0.473-1.645-0.903-2.419c-2.429-4.698-8.319-0.118-12.361-0.311c0-0.903-0.085-2.537,0.366-3.129
		c2.903-3.708,7.353-1.901,9.631-3.578c7.761-5.741,9.846-1.613,17.949,0.644c2.407,0.655,5.889-0.859,8.19-1.859
		c0.581-0.236,0.558,3.418,0.258,4.181c-0.946,2.56-3.612,2.44-4.557,4.73c-1.355,3.396-1.549,8.136-5.139,9.856 M334.779,88.393
		c0.346-0.214-0.278,0.258,0.023-0.021c-3.505-1.763-8.062-4.053-9.652,0.613C323.969,92.402,331.75,90.006,334.779,88.393"/>
	<path fill="#CD1543" d="M253.889,269.512c3.569,0.85,7.502,0.967,9.824-2.161c1.139,4.858-3.331,5.472-4.148,7.847
		c-1.225,3.622-1.182,7.233-4.664,9.093c-6.988,3.729-15.736,8.179-23.733,8.856c0.043-1-0.623-2.772,0.688-2.848
		c2.795-0.13,4.988-2.203,5.61-3.859c0.882-2.332-0.129-7.931-2.214-9.019c-2.408-1.278-4.558,0.689-6.749,1.634
		c-0.903-2.439,2.901-6.512,8.898-6.158c-0.15,0,2.968-3.417,2.816-3.3C244.173,266.898,248.451,268.253,253.889,269.512
		 M243.228,275.788c1.375,0.527,5.481-1.752,6.987-2.579c0.343-0.216,0.601-0.58,0.88-0.859c0,0-0.021-0.099-0.085-0.141
		c-1.162-0.246-2.258-0.334-3.396-0.431c-0.859-0.139-1.484-0.698-2.387-0.87c-0.235-0.074-0.429-0.021-0.666,0.064
		c-0.322,0.14-0.431,0.366-0.709,0.474c-0.408,0.193-1.009,0.193-1.354,0.559c-0.408,0.345-0.73,0.677-0.86,1.182
		c-0.17,0.56-0.042,1.387,0.366,1.892C242.346,275.456,242.797,275.626,243.228,275.788"/>
	<path fill="#CD1543" d="M362.726,235.524c-0.086-1.182,2.859-4.696,2.924-7.297c0.28-8.771,5.568-12.951,5.739-22.303
		c0.022-2.46-10.124-4.76-10.576-10.06c-0.193-2.601-1.075-6.396,1.569-6.32c3.375,0.064,6.643-0.548,9.051-2.654
		c10.619-9.331,1.654-22.109,0.364-33.363c-0.3-2.495,4.299-7.804,4.149-9.566c-0.71-9.545-2.493-18.273,0.902-27.644
		c-2.687,2.364-3.46,6.329-5.695,8.34c-1.097,0.989-1.634-1.237-1.569-1.56c1.353-8.288,4.643-15.509,8.47-23.365
		c4.514-9.299,2.235-16.854-6.128-19.638c-7.673-2.558-15.068,4.579-15.907,11.931c-0.795,6.728,1.334,14.811,2.924,20.303
		c0.451,1.613,0.193,3.46,0.516,4.857c1.376-5.566,1.549-11.382,1.44-17.283c-0.021-1.417,1.119-3.364,2.58-3.792
		c4.986-1.419,7.566,2.191,7.265,4.975c-1.117,8.836-2.9,15.584-4.986,24.347c-2.428,10.006,1.139,19.937,2.215,29.665
		c-3.848-2.258-8.019-2.387-9.522,3.59c-0.774,3.182,2.062,6.513,2.965,9.34c0.108-3.817,3.698-9.029,7.202-6.707
		c4.32,2.848,4.471,16.594,3.503,18.389c-2.062,3.977-5.546,6.827-10.295,5.408c-2.666-0.786-1.592-4.74-3.182-6.417
		c-8.578-8.845-12.47-19.444-13.2-31.665c-0.105-1.783,0.839-6.481,0.537-6.599c-11.156-4.601-16.294,0-20.98,6.599
		c-0.772-2-5.03-4.794-5.373-4.182c-2.129,3.956-1.527,11.092,1.654,13.866c8.643,7.47,17.177,12.467,22.033,23.142
		c-5.2,0.666-10.23,2.17-12.229,7.576c-2.064,5.645-1.354,13.511,4.622,15.812c4.836,1.848,13.22-0.237,15.024,0
		c5.159,0.676,10.965,5.147,10.146,10.016c-0.043,0.237-2.214,11.64-7.158,8.815c-2.666-1.504-1.182-7.771-5.244-8.75
		c-5.504-1.343-6.836,6.343-6.126,5.675c1.719-1.687,2.923,1.097,6.341,2.956c-11.5-2.481-7.954,8.041-7.503,6.869
		c0.602-1.623,2.666,0.087,6.772-0.205c0.17,0-0.903,0.882-0.947,0.979c-0.622,1.032-0.944,1.56-1.419,2.677
		c-0.235,0.525-0.191,1.085-0.15,1.654c0.064,0.56,0.259,1.053,0.537,1.537c0.088,0.117,0.193,0.214,0.322,0.269
		c0.064,0.021,0.237,0.291,0.259,0.291c0.237,0.009-0.235-0.818,0.431-0.871c0.149-0.021,0.666-0.076,0.773-0.043
		c0.3,0.118,0.71,0.311,1.032,0.408c0.279,0.064,0.602,0.12,0.924,0.184c0.774,0.106,1.054,0.118,1.72-0.12
		c0.602-0.214,1.182-0.32,1.721-0.698c-0.71,0.483,0.815-0.73,0.751-0.634c0.73-1.505,1.141-1.076,1.29-1.343
		c1.203-2.322,2.3-2.537,5.01-2.226c0.234,0.043,0.795,0.592,0.902,0.827c0.215,0.29,0.752,1.765,0.666,1.214
		C361.974,233.806,362.661,234.472,362.726,235.524"/>
	<path fill="#CD1543" d="M279.858,129.698c-0.71-0.452-0.947-1.514-1.44-1.966c-0.152-0.152-0.258-0.334-0.41-0.484
		c-0.258-0.269-0.343-0.592-0.429-0.924c-0.495-1.645-0.237-3.58,1.226-4.687c0.086-0.043,0.064-0.129,0.086-0.205
		c0.064-0.141,0.302-0.215,0.322-0.355c0.064-0.15,0.3-0.15,0.214-0.343c0.108,0.064,0.108-0.085,0.173-0.108
		c0.279-0.375,0.3-1.074-0.28-1.258c0.474,0.055,0.946,0.032,1.439,0.152c0.194,0.021,0.388,0.053,0.539,0.085
		c1.848,0.247,4.147,1.064,4.622,2.891l0.622,0.742c1.915,4.375,1.247,15.186,11.76,17.767c5.481,1.375,11.007,3.062,16.617,2.956
		c-1.355,5.481-1.355,12.423,2.986,16.412c-6.298-3.449-10.512-2.73-16.014-7.91c-2.451-2.332-8.147-5.481-10.898-5.03
		c-1.161,0.194,1.59-3.645-0.968-4.418c-1.656-0.494-6.084-0.364-6.856,0.774c-3.634,5.472-7.46,5.417-8.728,6.536
		c1.481-1.258-5.977-7.331,3.267-10.598c0.881-0.334,1.203-2.343,0.129-2.848c-1.827-0.85-3.311,0.408-5.116,1.45
		c-2.021,1.216-2.494-3.224-5.719-1.59c-0.666-9.481,7.803-10.308,12.856-4.385c0.343,0.452,1.739-0.076,1.159-0.592
		L279.858,129.698z"/>
	<path fill="#231F20" d="M86.862,64.436l0.086,3.085c0.171,6.976,0.322,13.929,0.451,20.873
		c1.871,90.662,3.677,176.259,57.267,258.462c22.098,33.964,56.062,62.178,98.131,81.665l1.291,0.58l1.226-0.58
		c42.025-19.529,75.925-47.798,97.959-81.665c53.59-82.181,55.396-167.759,57.267-258.366c0.171-6.965,0.3-13.961,0.473-20.969
		l0.064-3.085H86.862z M120.697,286.849l123.584-97.97l123.089,97.712c-3.117,8.06-6.601,16.068-10.47,24.064L244.302,221.23
		l-113.136,89.706C127.275,302.95,123.793,294.909,120.697,286.849z M338.263,343.598c-21.238,32.601-53.783,59.857-94.198,78.914
		c-40.499-19.014-73.13-46.271-94.411-78.914c-3.548-5.449-6.859-10.962-9.954-16.455l104.581-82.9l104.129,82.642
		C345.229,332.485,341.853,338.043,338.263,343.598z M394.562,88.372c-1.312,62.371-2.602,122.324-20.896,180.204l-129.365-102.71
		L114.377,268.887C95.934,210.88,94.708,150.798,93.397,88.275c-0.129-5.933-0.236-11.898-0.387-17.842h301.918
		C394.8,76.42,394.671,82.407,394.562,88.372z"/>
</g>
</svg>
